<svg width="26" height="25" viewBox="0 0 26 25" fill="none" xmlns="http://www.w3.org/2000/svg">
<path d="M12.9999 3.90625C11.9639 3.90625 10.9703 4.3178 10.2378 5.05036C9.50522 5.78293 9.09367 6.7765 9.09367 7.8125C9.09367 8.8485 9.50522 9.84207 10.2378 10.5746C10.9703 11.3072 11.9639 11.7188 12.9999 11.7188C14.0359 11.7188 15.0295 11.3072 15.7621 10.5746C16.4946 9.84207 16.9062 8.8485 16.9062 7.8125C16.9062 6.7765 16.4946 5.78293 15.7621 5.05036C15.0295 4.3178 14.0359 3.90625 12.9999 3.90625ZM8.83325 13.8021C7.79725 13.8021 6.80368 14.2136 6.07112 14.9462C5.33855 15.6788 4.927 16.6723 4.927 17.7083V18.9458C4.927 19.7313 5.49575 20.4 6.27075 20.526C10.727 21.2542 15.2728 21.2542 19.7291 20.526C20.1039 20.4644 20.4447 20.2717 20.6907 19.9823C20.9368 19.693 21.0722 19.3257 21.0728 18.9458V17.7083C21.0728 16.6723 20.6613 15.6788 19.9287 14.9462C19.1962 14.2136 18.2026 13.8021 17.1666 13.8021H16.8124C16.618 13.8028 16.4291 13.8326 16.2458 13.8917L15.3437 14.1865C13.8207 14.6836 12.1791 14.6836 10.6562 14.1865L9.75409 13.8917C9.57124 13.833 9.38048 13.8028 9.18846 13.8021H8.83325Z" fill="black"/>
</svg>
