<svg width="24" height="25" viewBox="0 0 24 25" fill="none" xmlns="http://www.w3.org/2000/svg">
<path fill-rule="evenodd" clip-rule="evenodd" d="M8.16 4.5C7.63121 4.50017 7.11186 4.64011 6.65456 4.90563C6.19727 5.17116 5.81828 5.55284 5.556 6.012L3.563 9.5H2.4C2.29391 9.5 2.19217 9.54214 2.11716 9.61716C2.04214 9.69217 2 9.79391 2 9.9V10.375C1.9998 10.5536 2.05936 10.7271 2.16917 10.8679C2.27899 11.0087 2.43276 11.1087 2.606 11.152L2.63 11.157C2.21244 12.0237 2.05376 12.9924 2.173 13.947L2.898 19.748C2.95846 20.2318 3.19356 20.6768 3.5591 20.9995C3.92464 21.3221 4.39544 21.5001 4.883 21.5H5C5.53043 21.5 6.03914 21.2893 6.41421 20.9142C6.78929 20.5391 7 20.0304 7 19.5H17C17 20.0304 17.2107 20.5391 17.5858 20.9142C17.9609 21.2893 18.4696 21.5 19 21.5H19.117C19.6046 21.5001 20.0754 21.3221 20.4409 20.9995C20.8064 20.6768 21.0415 20.2318 21.102 19.748L21.827 13.948C21.9462 12.9934 21.7876 12.0247 21.37 11.158L21.394 11.152C21.5672 11.1087 21.721 11.0087 21.8308 10.8679C21.9406 10.7271 22.0002 10.5536 22 10.375V9.9C22 9.79391 21.9579 9.69217 21.8828 9.61716C21.8078 9.54214 21.7061 9.5 21.6 9.5H20.437L18.444 6.012C18.1817 5.55284 17.8027 5.17116 17.3454 4.90563C16.8881 4.64011 16.3688 4.50017 15.84 4.5H8.16ZM18.422 10.004L16.708 7.004C16.6205 6.8508 16.494 6.72348 16.3414 6.63496C16.1888 6.54644 16.0154 6.49988 15.839 6.5H8.161C7.98457 6.49988 7.81124 6.54644 7.65862 6.63496C7.506 6.72348 7.37951 6.8508 7.292 7.004L5.578 10.004C5.49114 10.1561 5.44574 10.3283 5.44633 10.5034C5.44692 10.6785 5.49349 10.8504 5.58137 11.0019C5.66926 11.1533 5.79538 11.2791 5.94711 11.3665C6.09885 11.4539 6.27088 11.4999 6.446 11.5H17.554C17.7291 11.4999 17.9012 11.4539 18.0529 11.3665C18.2046 11.2791 18.3307 11.1533 18.4186 11.0019C18.5065 10.8504 18.5531 10.6785 18.5537 10.5034C18.5543 10.3283 18.5089 10.1561 18.422 10.004ZM5 15.539V14.839C4.99995 14.7524 5.02241 14.6672 5.06518 14.5919C5.10794 14.5166 5.16955 14.4536 5.24395 14.4093C5.31836 14.3649 5.40301 14.3406 5.48962 14.3388C5.57623 14.337 5.66182 14.3578 5.738 14.399L8.48 15.879C8.853 16.081 8.698 16.648 8.274 16.631L5.96 16.538C5.70212 16.5277 5.45822 16.4181 5.27931 16.2321C5.10039 16.0461 5.00031 15.7981 5 15.54V15.539ZM19 14.839V15.539C19.0002 15.7974 18.9004 16.0459 18.7214 16.2323C18.5424 16.4188 18.2982 16.5287 18.04 16.539L15.726 16.631C15.302 16.648 15.146 16.081 15.52 15.879L18.262 14.399C18.3382 14.3578 18.4238 14.337 18.5104 14.3388C18.597 14.3406 18.6816 14.3649 18.756 14.4093C18.8305 14.4536 18.8921 14.5166 18.9348 14.5919C18.9776 14.6672 19 14.7524 19 14.839Z" fill="black"/>
</svg>
